<svg xmlns="http://www.w3.org/2000/svg" xmlns:xlink="http://www.w3.org/1999/xlink" width="378" zoomAndPan="magnify" viewBox="0 0 283.5 283.500005" height="378" preserveAspectRatio="xMidYMid meet" version="1.0"><defs><g/><clipPath id="590e88cde6"><path d="M 0 0 L 283 0 L 283 283 L 0 283 Z M 0 0 " clip-rule="nonzero"/></clipPath><clipPath id="f36aadd3fe"><path d="M 89 98 L 194 98 L 194 192.210938 L 89 192.210938 Z M 89 98 " clip-rule="nonzero"/></clipPath><clipPath id="4c4de97ca5"><rect x="0" width="283" y="0" height="283"/></clipPath></defs><path fill="#ffffff" d="M 0 0 L 283 0 L 283 283 L 0 283 Z M 0 0 " fill-opacity="1" fill-rule="nonzero"/><g transform="matrix(1, 0, 0, 1, 0, 0.000000000000005262)"><g clip-path="url(#4c4de97ca5)"><g clip-path="url(#590e88cde6)"><rect x="-62.37" width="408.24" fill="#ffffff" height="408.240007" y="-62.370001" fill-opacity="1"/></g><g fill="#000000" fill-opacity="1"><g transform="translate(23.8834, 139.326996)"><g><path d="M 2.78125 8.921875 C 2.84375 10.066406 3.296875 11.15625 4.140625 12.1875 L 1.9375 13.734375 C 1.414062 13.023438 0.992188 12.253906 0.671875 11.421875 C 0.359375 10.597656 0.179688 9.789062 0.140625 9 C 0.0546875 7.476562 0.296875 6.140625 0.859375 4.984375 C 1.429688 3.828125 2.25 2.910156 3.3125 2.234375 C 4.382812 1.566406 5.609375 1.195312 6.984375 1.125 C 8.328125 1.050781 9.570312 1.320312 10.71875 1.9375 C 11.863281 2.550781 12.785156 3.421875 13.484375 4.546875 C 14.191406 5.671875 14.582031 6.925781 14.65625 8.3125 C 14.75 10.09375 14.304688 11.609375 13.328125 12.859375 C 12.347656 14.109375 10.929688 15 9.078125 15.53125 L 4.75 4.9375 C 4.082031 5.351562 3.578125 5.90625 3.234375 6.59375 C 2.890625 7.289062 2.738281 8.066406 2.78125 8.921875 Z M 12.203125 8.203125 C 12.140625 6.953125 11.644531 5.945312 10.71875 5.1875 C 9.800781 4.425781 8.660156 4.078125 7.296875 4.140625 C 6.972656 4.160156 6.722656 4.1875 6.546875 4.21875 L 9.90625 11.984375 C 10.625 11.617188 11.195312 11.125 11.625 10.5 C 12.0625 9.875 12.253906 9.109375 12.203125 8.203125 Z M 12.203125 8.203125 "/></g></g></g><g fill="#000000" fill-opacity="1"><g transform="translate(25.041044, 157.551531)"><g><path d="M 0.953125 6.46875 C 0.753906 5.476562 0.742188 4.5 0.921875 3.53125 C 1.097656 2.570312 1.460938 1.742188 2.015625 1.046875 L 4.015625 2 C 3.609375 2.644531 3.320312 3.289062 3.15625 3.9375 C 2.988281 4.59375 2.960938 5.210938 3.078125 5.796875 C 3.210938 6.492188 3.460938 7.039062 3.828125 7.4375 C 4.203125 7.84375 4.679688 7.988281 5.265625 7.875 C 5.710938 7.789062 6.046875 7.578125 6.265625 7.234375 C 6.492188 6.898438 6.640625 6.539062 6.703125 6.15625 C 6.765625 5.769531 6.84375 5.140625 6.9375 4.265625 C 7.238281 1.835938 8.320312 0.441406 10.1875 0.078125 C 11.3125 -0.140625 12.351562 0.0820312 13.3125 0.75 C 14.269531 1.425781 14.894531 2.507812 15.1875 4 C 15.363281 4.9375 15.40625 5.796875 15.3125 6.578125 C 15.21875 7.367188 14.972656 8.125 14.578125 8.84375 L 12.5 8 C 12.800781 7.59375 13.007812 7.101562 13.125 6.53125 C 13.238281 5.957031 13.257812 5.425781 13.1875 4.9375 C 13.070312 4.332031 12.828125 3.84375 12.453125 3.46875 C 12.078125 3.101562 11.640625 2.96875 11.140625 3.0625 C 10.734375 3.144531 10.421875 3.351562 10.203125 3.6875 C 9.984375 4.019531 9.84375 4.347656 9.78125 4.671875 C 9.726562 5.003906 9.644531 5.632812 9.53125 6.5625 C 9.382812 7.738281 9.078125 8.6875 8.609375 9.40625 C 8.148438 10.132812 7.425781 10.597656 6.4375 10.796875 C 5.144531 11.046875 3.988281 10.800781 2.96875 10.0625 C 1.945312 9.320312 1.273438 8.125 0.953125 6.46875 Z M 0.953125 6.46875 "/></g></g></g><g fill="#000000" fill-opacity="1"><g transform="translate(27.714888, 171.992652)"><g><path d="M 17.1875 5.859375 C 17.613281 7.066406 17.710938 8.257812 17.484375 9.4375 C 17.253906 10.613281 16.710938 11.664062 15.859375 12.59375 C 15.015625 13.519531 13.910156 14.226562 12.546875 14.71875 C 11.203125 15.195312 9.910156 15.320312 8.671875 15.09375 C 7.441406 14.863281 6.351562 14.316406 5.40625 13.453125 C 4.46875 12.597656 3.769531 11.523438 3.3125 10.234375 C 2.976562 9.296875 2.859375 8.328125 2.953125 7.328125 C 3.046875 6.335938 3.347656 5.46875 3.859375 4.71875 L -4.234375 7.609375 L -5.265625 4.71875 L 13.96875 -2.15625 L 14.859375 0.359375 L 12.78125 1.390625 C 13.75 1.773438 14.628906 2.347656 15.421875 3.109375 C 16.210938 3.867188 16.800781 4.785156 17.1875 5.859375 Z M 5.4375 8.84375 C 5.726562 9.644531 6.1875 10.320312 6.8125 10.875 C 7.4375 11.4375 8.15625 11.800781 8.96875 11.96875 C 9.789062 12.132812 10.617188 12.070312 11.453125 11.78125 C 12.296875 11.476562 12.988281 11.015625 13.53125 10.390625 C 14.082031 9.765625 14.4375 9.050781 14.59375 8.25 C 14.757812 7.445312 14.695312 6.640625 14.40625 5.828125 C 14.007812 4.734375 13.367188 3.90625 12.484375 3.34375 C 11.597656 2.789062 10.59375 2.582031 9.46875 2.71875 L 7.34375 3.46875 C 6.394531 3.988281 5.742188 4.75 5.390625 5.75 C 5.046875 6.75 5.0625 7.78125 5.4375 8.84375 Z M 5.4375 8.84375 "/></g></g></g><g fill="#000000" fill-opacity="1"><g transform="translate(34.959581, 191.595299)"><g><path d="M 6.453125 6.78125 C 7.015625 7.78125 7.898438 8.546875 9.109375 9.078125 L 7.828125 11.453125 C 7.054688 11.046875 6.34375 10.539062 5.6875 9.9375 C 5.03125 9.34375 4.507812 8.695312 4.125 8 C 3.382812 6.675781 3.003906 5.367188 2.984375 4.078125 C 2.972656 2.796875 3.296875 1.613281 3.953125 0.53125 C 4.617188 -0.539062 5.554688 -1.414062 6.765625 -2.09375 C 7.941406 -2.75 9.175781 -3.054688 10.46875 -3.015625 C 11.757812 -2.972656 12.972656 -2.601562 14.109375 -1.90625 C 15.242188 -1.207031 16.148438 -0.253906 16.828125 0.953125 C 17.703125 2.503906 17.972656 4.054688 17.640625 5.609375 C 17.316406 7.160156 16.445312 8.585938 15.03125 9.890625 L 6.4375 2.3125 C 6.039062 3 5.835938 3.726562 5.828125 4.5 C 5.828125 5.269531 6.035156 6.03125 6.453125 6.78125 Z M 14.59375 1.9375 C 13.976562 0.84375 13.082031 0.160156 11.90625 -0.109375 C 10.738281 -0.390625 9.5625 -0.195312 8.375 0.46875 C 8.09375 0.625 7.878906 0.757812 7.734375 0.875 L 14.1875 6.359375 C 14.675781 5.710938 14.972656 5.007812 15.078125 4.25 C 15.191406 3.5 15.03125 2.726562 14.59375 1.9375 Z M 14.59375 1.9375 "/></g></g></g><g fill="#000000" fill-opacity="1"><g transform="translate(44.074218, 207.488386)"><g><path d="M 9.421875 10.078125 C 8.648438 9.890625 7.890625 9.550781 7.140625 9.0625 C 6.398438 8.570312 5.757812 7.984375 5.21875 7.296875 C 4.320312 6.128906 3.765625 4.914062 3.546875 3.65625 C 3.328125 2.394531 3.453125 1.179688 3.921875 0.015625 C 4.398438 -1.140625 5.203125 -2.15625 6.328125 -3.03125 C 7.441406 -3.882812 8.625 -4.382812 9.875 -4.53125 C 11.132812 -4.675781 12.335938 -4.492188 13.484375 -3.984375 C 14.628906 -3.484375 15.59375 -2.726562 16.375 -1.71875 C 17.644531 -0.0703125 18.253906 1.632812 18.203125 3.40625 L 15.65625 3.421875 C 15.644531 2.859375 15.554688 2.285156 15.390625 1.703125 C 15.222656 1.117188 14.9375 0.566406 14.53125 0.046875 C 14.039062 -0.585938 13.429688 -1.046875 12.703125 -1.328125 C 11.972656 -1.617188 11.207031 -1.703125 10.40625 -1.578125 C 9.613281 -1.453125 8.878906 -1.128906 8.203125 -0.609375 C 7.515625 -0.078125 7.019531 0.5625 6.71875 1.3125 C 6.414062 2.070312 6.3125 2.851562 6.40625 3.65625 C 6.507812 4.46875 6.835938 5.234375 7.390625 5.953125 C 8.066406 6.835938 8.925781 7.398438 9.96875 7.640625 Z M 9.421875 10.078125 "/></g></g></g><g fill="#000000" fill-opacity="1"><g transform="translate(53.972472, 219.902735)"><g><path d="M 13.8125 -5.328125 L 3.984375 4.125 L 1.859375 1.921875 L 11.6875 -7.53125 Z M 15.046875 -11.109375 C 15.398438 -11.453125 15.820312 -11.601562 16.3125 -11.5625 C 16.800781 -11.519531 17.21875 -11.328125 17.5625 -10.984375 C 17.894531 -10.628906 18.066406 -10.207031 18.078125 -9.71875 C 18.097656 -9.226562 17.929688 -8.8125 17.578125 -8.46875 C 17.234375 -8.132812 16.816406 -7.984375 16.328125 -8.015625 C 15.847656 -8.054688 15.441406 -8.253906 15.109375 -8.609375 C 14.765625 -8.953125 14.582031 -9.367188 14.5625 -9.859375 C 14.539062 -10.359375 14.703125 -10.773438 15.046875 -11.109375 Z M 15.046875 -11.109375 "/></g></g></g><g fill="#000000" fill-opacity="1"><g transform="translate(60.321299, 226.908584)"><g><path d="M 21.546875 -0.171875 L 13 10.453125 L 10.609375 8.53125 L 12.015625 6.796875 C 11.234375 6.984375 10.3125 6.992188 9.25 6.828125 C 8.195312 6.660156 7.222656 6.21875 6.328125 5.5 C 5.304688 4.6875 4.5625 3.734375 4.09375 2.640625 C 3.632812 1.554688 3.507812 0.410156 3.71875 -0.796875 C 3.925781 -2.015625 4.5 -3.210938 5.4375 -4.390625 C 6.363281 -5.546875 7.421875 -6.359375 8.609375 -6.828125 C 9.796875 -7.304688 10.992188 -7.445312 12.203125 -7.25 C 13.410156 -7.050781 14.519531 -6.546875 15.53125 -5.734375 C 16.4375 -5.003906 17.0625 -4.175781 17.40625 -3.25 C 17.757812 -2.320312 17.890625 -1.375 17.796875 -0.40625 L 19.328125 -1.953125 Z M 8.53125 4.03125 C 9.40625 4.738281 10.351562 5.097656 11.375 5.109375 C 12.394531 5.128906 13.332031 4.789062 14.1875 4.09375 L 15.875 1.984375 C 16.269531 1.054688 16.332031 0.0976562 16.0625 -0.890625 C 15.789062 -1.890625 15.238281 -2.722656 14.40625 -3.390625 C 13.769531 -3.898438 13.054688 -4.21875 12.265625 -4.34375 C 11.472656 -4.476562 10.695312 -4.390625 9.9375 -4.078125 C 9.175781 -3.773438 8.507812 -3.269531 7.9375 -2.5625 C 7.382812 -1.882812 7.046875 -1.132812 6.921875 -0.3125 C 6.796875 0.507812 6.867188 1.304688 7.140625 2.078125 C 7.421875 2.859375 7.882812 3.507812 8.53125 4.03125 Z M 8.53125 4.03125 "/></g></g></g><g fill="#000000" fill-opacity="1"><g transform="translate(76.433814, 239.331703)"><g><path d="M 18.234375 -18.765625 L 4.890625 3 L 2.28125 1.390625 L 15.625 -20.375 Z M 18.234375 -18.765625 "/></g></g></g><g fill="#000000" fill-opacity="1"><g transform="translate(84.439205, 245.008506)"><g><path d="M 24.046875 -5.546875 C 25.253906 -5.046875 26.078125 -4.300781 26.515625 -3.3125 C 26.960938 -2.332031 26.972656 -1.257812 26.546875 -0.09375 L 22.734375 9.265625 L 19.890625 8.109375 L 23.28125 -0.21875 C 23.832031 -1.726562 23.484375 -2.785156 22.234375 -3.390625 C 21.492188 -3.679688 20.742188 -3.726562 19.984375 -3.53125 C 19.234375 -3.332031 18.550781 -2.941406 17.9375 -2.359375 C 17.320312 -1.785156 16.835938 -1.09375 16.484375 -0.28125 L 14.03125 5.71875 L 11.171875 4.546875 L 14.5625 -3.78125 C 15.101562 -5.289062 14.726562 -6.351562 13.4375 -6.96875 C 12.726562 -7.257812 11.992188 -7.300781 11.234375 -7.09375 C 10.472656 -6.894531 9.785156 -6.503906 9.171875 -5.921875 C 8.554688 -5.335938 8.082031 -4.632812 7.75 -3.8125 L 5.3125 2.15625 L 2.46875 1.015625 L 7.609375 -11.609375 L 10.171875 -10.578125 L 9.4375 -8.125 C 10.28125 -8.84375 11.226562 -9.28125 12.28125 -9.4375 C 13.34375 -9.601562 14.410156 -9.46875 15.484375 -9.03125 C 16.503906 -8.613281 17.265625 -8.023438 17.765625 -7.265625 C 18.265625 -6.503906 18.441406 -5.664062 18.296875 -4.75 C 19.171875 -5.363281 20.113281 -5.742188 21.125 -5.890625 C 22.132812 -6.035156 23.109375 -5.921875 24.046875 -5.546875 Z M 24.046875 -5.546875 "/></g></g></g><g fill="#000000" fill-opacity="1"><g transform="translate(111.370981, 255.251807)"><g><path d="M 9.328125 -0.625 C 10.453125 -0.414062 11.617188 -0.597656 12.828125 -1.171875 L 13.796875 1.328125 C 12.992188 1.671875 12.148438 1.898438 11.265625 2.015625 C 10.390625 2.128906 9.5625 2.113281 8.78125 1.96875 C 7.289062 1.695312 6.046875 1.148438 5.046875 0.328125 C 4.046875 -0.492188 3.34375 -1.503906 2.9375 -2.703125 C 2.539062 -3.898438 2.46875 -5.179688 2.71875 -6.546875 C 2.96875 -7.859375 3.519531 -9 4.375 -9.96875 C 5.238281 -10.9375 6.300781 -11.628906 7.5625 -12.046875 C 8.820312 -12.472656 10.132812 -12.5625 11.5 -12.3125 C 13.25 -11.988281 14.617188 -11.203125 15.609375 -9.953125 C 16.597656 -8.710938 17.140625 -7.128906 17.234375 -5.203125 L 5.890625 -3.46875 C 6.160156 -2.71875 6.59375 -2.09375 7.1875 -1.59375 C 7.78125 -1.101562 8.492188 -0.78125 9.328125 -0.625 Z M 10.828125 -9.953125 C 9.609375 -10.179688 8.515625 -9.9375 7.546875 -9.21875 C 6.585938 -8.5 5.984375 -7.46875 5.734375 -6.125 C 5.671875 -5.8125 5.632812 -5.566406 5.625 -5.390625 L 13.96875 -6.828125 C 13.78125 -7.617188 13.429688 -8.296875 12.921875 -8.859375 C 12.421875 -9.421875 11.722656 -9.785156 10.828125 -9.953125 Z M 10.828125 -9.953125 "/></g></g></g><g fill="#000000" fill-opacity="1"><g transform="translate(129.526384, 258.563145)"><g><path d="M 11.453125 -13.921875 C 12.722656 -13.898438 13.765625 -13.5 14.578125 -12.71875 C 15.398438 -11.9375 15.8125 -10.941406 15.8125 -9.734375 L 15.59375 0.34375 L 12.484375 0.265625 L 12.6875 -8.765625 C 12.65625 -9.535156 12.4375 -10.140625 12.03125 -10.578125 C 11.625 -11.023438 11.003906 -11.269531 10.171875 -11.3125 C 8.960938 -11.34375 7.953125 -10.882812 7.140625 -9.9375 C 6.328125 -8.988281 5.90625 -7.765625 5.875 -6.265625 L 5.734375 0.125 L 2.671875 0.0625 L 2.96875 -13.578125 L 5.734375 -13.515625 L 5.875 -10.875 C 6.375 -11.851562 7.113281 -12.613281 8.09375 -13.15625 C 9.082031 -13.695312 10.203125 -13.953125 11.453125 -13.921875 Z M 11.453125 -13.921875 "/></g></g></g><g fill="#000000" fill-opacity="1"><g transform="translate(148.847167, 258.688116)"><g><path d="M 4.75 -20.328125 L 5.453125 -14.328125 L 9.15625 -14.765625 L 9.4375 -12.34375 L 5.734375 -11.90625 L 7.03125 -0.8125 L 3.953125 -0.46875 L 2.65625 -11.5625 L 0.171875 -11.265625 L -0.109375 -13.6875 L 2.375 -13.984375 L 1.671875 -19.984375 Z M 4.75 -20.328125 "/></g></g></g><g fill="#000000" fill-opacity="1"><g transform="translate(161.717369, 257.291367)"><g><path d="M 8.21875 -4.46875 C 9.332031 -4.75 10.3125 -5.40625 11.15625 -6.4375 L 13.09375 -4.59375 C 12.5 -3.945312 11.828125 -3.382812 11.078125 -2.90625 C 10.328125 -2.4375 9.566406 -2.101562 8.796875 -1.90625 C 7.328125 -1.53125 5.96875 -1.503906 4.71875 -1.828125 C 3.46875 -2.148438 2.410156 -2.765625 1.546875 -3.671875 C 0.679688 -4.585938 0.078125 -5.71875 -0.265625 -7.0625 C -0.597656 -8.363281 -0.570312 -9.632812 -0.1875 -10.875 C 0.1875 -12.125 0.851562 -13.203125 1.8125 -14.109375 C 2.78125 -15.023438 3.9375 -15.65625 5.28125 -16 C 7.007812 -16.4375 8.582031 -16.296875 10 -15.578125 C 11.414062 -14.867188 12.566406 -13.660156 13.453125 -11.953125 L 3.90625 -5.625 C 4.46875 -5.050781 5.117188 -4.660156 5.859375 -4.453125 C 6.609375 -4.253906 7.394531 -4.257812 8.21875 -4.46875 Z M 5.65625 -13.578125 C 4.4375 -13.273438 3.539062 -12.59375 2.96875 -11.53125 C 2.40625 -10.476562 2.289062 -9.289062 2.625 -7.96875 C 2.707031 -7.65625 2.78125 -7.421875 2.84375 -7.265625 L 9.8125 -12.0625 C 9.3125 -12.695312 8.710938 -13.164062 8.015625 -13.46875 C 7.316406 -13.769531 6.53125 -13.804688 5.65625 -13.578125 Z M 5.65625 -13.578125 "/></g></g></g><g fill="#000000" fill-opacity="1"><g transform="translate(179.226141, 252.553079)"><g/></g></g><g fill="#000000" fill-opacity="1"><g transform="translate(190.05148, 248.54177)"><g><path d="M 2.875 -17.921875 C 3.988281 -18.546875 5.144531 -18.84375 6.34375 -18.8125 C 7.550781 -18.78125 8.6875 -18.425781 9.75 -17.75 C 10.8125 -17.082031 11.695312 -16.117188 12.40625 -14.859375 C 13.101562 -13.609375 13.441406 -12.351562 13.421875 -11.09375 C 13.398438 -9.832031 13.046875 -8.664062 12.359375 -7.59375 C 11.671875 -6.53125 10.726562 -5.660156 9.53125 -4.984375 C 8.664062 -4.503906 7.734375 -4.226562 6.734375 -4.15625 C 5.742188 -4.082031 4.832031 -4.226562 4 -4.59375 L 8.21875 2.90625 L 5.546875 4.40625 L -4.46875 -13.40625 L -2.140625 -14.71875 L -0.78125 -12.828125 C -0.5625 -13.859375 -0.144531 -14.820312 0.46875 -15.71875 C 1.082031 -16.625 1.882812 -17.359375 2.875 -17.921875 Z M 7.796875 -6.84375 C 8.546875 -7.257812 9.140625 -7.820312 9.578125 -8.53125 C 10.023438 -9.25 10.257812 -10.023438 10.28125 -10.859375 C 10.3125 -11.703125 10.113281 -12.507812 9.6875 -13.28125 C 9.25 -14.0625 8.671875 -14.664062 7.953125 -15.09375 C 7.242188 -15.53125 6.476562 -15.757812 5.65625 -15.78125 C 4.84375 -15.800781 4.066406 -15.601562 3.328125 -15.1875 C 2.304688 -14.613281 1.597656 -13.84375 1.203125 -12.875 C 0.804688 -11.90625 0.765625 -10.875 1.078125 -9.78125 L 2.1875 -7.8125 C 2.863281 -6.976562 3.722656 -6.46875 4.765625 -6.28125 C 5.804688 -6.101562 6.816406 -6.289062 7.796875 -6.84375 Z M 7.796875 -6.84375 "/></g></g></g><g fill="#000000" fill-opacity="1"><g transform="translate(207.924111, 238.085357)"><g><path d="M -1.921875 -11.6875 C -2.097656 -12.476562 -2.101562 -13.300781 -1.9375 -14.15625 C -1.78125 -15.007812 -1.507812 -15.78125 -1.125 -16.46875 C -0.738281 -17.15625 -0.335938 -17.675781 0.078125 -18.03125 L 1.84375 -15.53125 C 1.039062 -14.957031 0.453125 -14.25 0.078125 -13.40625 C -0.285156 -12.5625 -0.40625 -11.695312 -0.28125 -10.8125 C -0.15625 -9.925781 0.175781 -9.132812 0.71875 -8.4375 L 4.53125 -3.515625 L 2.109375 -1.640625 L -6.25 -12.421875 L -4.078125 -14.09375 Z M -1.921875 -11.6875 "/></g></g></g><g fill="#000000" fill-opacity="1"><g transform="translate(218.765996, 229.898704)"><g><path d="M 1.734375 -21.46875 L 11.5625 -12.015625 L 9.4375 -9.796875 L 7.828125 -11.34375 C 7.953125 -10.5625 7.882812 -9.648438 7.625 -8.609375 C 7.375 -7.566406 6.847656 -6.628906 6.046875 -5.796875 C 5.140625 -4.859375 4.125 -4.207031 3 -3.84375 C 1.875 -3.488281 0.71875 -3.460938 -0.46875 -3.765625 C -1.664062 -4.078125 -2.804688 -4.753906 -3.890625 -5.796875 C -4.960938 -6.828125 -5.679688 -7.953125 -6.046875 -9.171875 C -6.410156 -10.398438 -6.441406 -11.609375 -6.140625 -12.796875 C -5.835938 -13.984375 -5.238281 -15.039062 -4.34375 -15.96875 C -3.53125 -16.8125 -2.644531 -17.363281 -1.6875 -17.625 C -0.726562 -17.894531 0.222656 -17.9375 1.171875 -17.75 L -0.234375 -19.421875 Z M 4.78125 -8.15625 C 5.5625 -8.957031 6.003906 -9.863281 6.109375 -10.875 C 6.210938 -11.894531 5.953125 -12.851562 5.328125 -13.75 L 3.375 -15.625 C 2.5 -16.113281 1.550781 -16.265625 0.53125 -16.078125 C -0.476562 -15.890625 -1.351562 -15.410156 -2.09375 -14.640625 C -2.65625 -14.054688 -3.035156 -13.375 -3.234375 -12.59375 C -3.429688 -11.820312 -3.414062 -11.039062 -3.1875 -10.25 C -2.957031 -9.46875 -2.515625 -8.765625 -1.859375 -8.140625 C -1.222656 -7.535156 -0.5 -7.128906 0.3125 -6.921875 C 1.125 -6.722656 1.925781 -6.726562 2.71875 -6.9375 C 3.507812 -7.144531 4.195312 -7.550781 4.78125 -8.15625 Z M 4.78125 -8.15625 "/></g></g></g><g fill="#000000" fill-opacity="1"><g transform="translate(232.656611, 214.92565)"><g/></g></g><g fill="#000000" fill-opacity="1"><g transform="translate(239.475664, 205.782454)"><g><path d="M -4.3125 -20.3125 L 4.421875 -7.125 L 4.328125 -6.984375 L -11.625 -7.171875 L -9.84375 -10.359375 L -0.21875 -9.75 L -5.984375 -17.296875 Z M -4.3125 -20.3125 "/></g></g></g><g fill="#000000" fill-opacity="1"><g transform="translate(247.979195, 190.421155)"><g><path d="M -6.015625 -3.78125 C -7.273438 -4.238281 -8.316406 -4.960938 -9.140625 -5.953125 C -9.960938 -6.941406 -10.472656 -8.085938 -10.671875 -9.390625 C -10.867188 -10.691406 -10.722656 -12.023438 -10.234375 -13.390625 C -9.734375 -14.742188 -8.988281 -15.84375 -8 -16.6875 C -7.007812 -17.53125 -5.890625 -18.0625 -4.640625 -18.28125 C -3.398438 -18.5 -2.140625 -18.375 -0.859375 -17.90625 C 0.421875 -17.4375 1.472656 -16.710938 2.296875 -15.734375 C 3.128906 -14.765625 3.644531 -13.632812 3.84375 -12.34375 C 4.050781 -11.050781 3.90625 -9.71875 3.40625 -8.34375 C 2.914062 -7 2.1875 -5.894531 1.21875 -5.03125 C 0.257812 -4.164062 -0.84375 -3.613281 -2.09375 -3.375 C -3.34375 -3.144531 -4.648438 -3.28125 -6.015625 -3.78125 Z M -4.921875 -6.671875 C -4.117188 -6.378906 -3.3125 -6.289062 -2.5 -6.40625 C -1.6875 -6.519531 -0.96875 -6.816406 -0.34375 -7.296875 C 0.28125 -7.785156 0.734375 -8.410156 1.015625 -9.171875 C 1.453125 -10.367188 1.390625 -11.515625 0.828125 -12.609375 C 0.265625 -13.703125 -0.644531 -14.476562 -1.90625 -14.9375 C -3.164062 -15.40625 -4.363281 -15.40625 -5.5 -14.9375 C -6.644531 -14.46875 -7.4375 -13.632812 -7.875 -12.4375 C -8.15625 -11.65625 -8.207031 -10.878906 -8.03125 -10.109375 C -7.863281 -9.335938 -7.503906 -8.644531 -6.953125 -8.03125 C -6.398438 -7.414062 -5.722656 -6.960938 -4.921875 -6.671875 Z M -4.921875 -6.671875 "/></g></g></g><g fill="#000000" fill-opacity="1"><g transform="translate(254.380542, 172.34867)"><g><path d="M 1.46875 -13.71875 C 1.84375 -13.019531 2.082031 -12.226562 2.1875 -11.34375 C 2.300781 -10.457031 2.273438 -9.585938 2.109375 -8.734375 C 1.816406 -7.273438 1.265625 -6.050781 0.453125 -5.0625 C -0.347656 -4.070312 -1.34375 -3.378906 -2.53125 -2.984375 C -3.726562 -2.585938 -5.023438 -2.53125 -6.421875 -2.8125 C -7.804688 -3.09375 -8.960938 -3.660156 -9.890625 -4.515625 C -10.816406 -5.378906 -11.460938 -6.40625 -11.828125 -7.59375 C -12.191406 -8.789062 -12.25 -10.019531 -12 -11.28125 C -11.582031 -13.320312 -10.679688 -14.894531 -9.296875 -16 L -7.640625 -14.078125 C -8.046875 -13.710938 -8.414062 -13.273438 -8.75 -12.765625 C -9.09375 -12.253906 -9.332031 -11.679688 -9.46875 -11.046875 C -9.625 -10.242188 -9.570312 -9.472656 -9.3125 -8.734375 C -9.050781 -7.992188 -8.613281 -7.363281 -8 -6.84375 C -7.382812 -6.320312 -6.65625 -5.976562 -5.8125 -5.8125 C -4.96875 -5.644531 -4.160156 -5.691406 -3.390625 -5.953125 C -2.628906 -6.210938 -1.972656 -6.644531 -1.421875 -7.25 C -0.867188 -7.851562 -0.503906 -8.597656 -0.328125 -9.484375 C -0.109375 -10.578125 -0.242188 -11.601562 -0.734375 -12.5625 Z M 1.46875 -13.71875 "/></g></g></g><g fill="#000000" fill-opacity="1"><g transform="translate(257.586652, 156.443521)"><g><path d="M -1.84375 -9.171875 C -1.78125 -10.316406 -2.117188 -11.445312 -2.859375 -12.5625 L -0.5 -13.859375 C -0.0625 -13.109375 0.269531 -12.300781 0.5 -11.4375 C 0.738281 -10.582031 0.835938 -9.757812 0.796875 -8.96875 C 0.710938 -7.445312 0.332031 -6.140625 -0.34375 -5.046875 C -1.03125 -3.953125 -1.9375 -3.125 -3.0625 -2.5625 C -4.195312 -2.007812 -5.453125 -1.769531 -6.828125 -1.84375 C -8.171875 -1.914062 -9.378906 -2.316406 -10.453125 -3.046875 C -11.523438 -3.773438 -12.351562 -4.734375 -12.9375 -5.921875 C -13.53125 -7.109375 -13.789062 -8.394531 -13.71875 -9.78125 C -13.625 -11.5625 -13.023438 -13.023438 -11.921875 -14.171875 C -10.816406 -15.316406 -9.316406 -16.0625 -7.421875 -16.40625 L -4.21875 -5.40625 C -3.507812 -5.757812 -2.945312 -6.257812 -2.53125 -6.90625 C -2.113281 -7.5625 -1.882812 -8.316406 -1.84375 -9.171875 Z M -11.296875 -9.421875 C -11.359375 -8.171875 -10.96875 -7.117188 -10.125 -6.265625 C -9.289062 -5.410156 -8.191406 -4.953125 -6.828125 -4.890625 C -6.503906 -4.867188 -6.253906 -4.863281 -6.078125 -4.875 L -8.59375 -12.953125 C -9.351562 -12.671875 -9.976562 -12.238281 -10.46875 -11.65625 C -10.96875 -11.070312 -11.242188 -10.328125 -11.296875 -9.421875 Z M -15.859375 -12.34375 L -18.828125 -9.796875 L -16.125 -7.0625 L -16.28125 -4.21875 L -21.625 -9.9375 L -21.625 -9.96875 L -15.703125 -15.203125 Z M -15.859375 -12.34375 "/></g></g></g><g clip-path="url(#f36aadd3fe)"><path fill="#c6302c" d="M 192.714844 121.820312 C 186.898438 91.769531 150.445312 91.269531 141.457031 119.359375 C 132.46875 91.269531 96.015625 91.769531 90.203125 121.820312 C 84.925781 149.082031 141.457031 192.09375 141.457031 192.09375 C 141.457031 192.09375 197.992188 149.082031 192.714844 121.820312 Z M 192.714844 121.820312 " fill-opacity="1" fill-rule="nonzero"/></g><g fill="#000000" fill-opacity="1"><g transform="translate(55.926213, 89.283557)"><g><path d="M -7.28125 -8.96875 L -8.515625 -6.96875 L -10.875 -8.421875 L -9.640625 -10.421875 L -14.515625 -13.421875 C -16.191406 -14.460938 -17.242188 -15.640625 -17.671875 -16.953125 C -18.097656 -18.265625 -17.851562 -19.660156 -16.9375 -21.140625 C -16.6875 -21.546875 -16.351562 -21.945312 -15.9375 -22.34375 C -15.53125 -22.75 -15.109375 -23.0625 -14.671875 -23.28125 L -13.46875 -20.96875 C -13.925781 -20.875 -14.3125 -20.570312 -14.625 -20.0625 C -15.0625 -19.351562 -15.148438 -18.671875 -14.890625 -18.015625 C -14.628906 -17.359375 -13.957031 -16.691406 -12.875 -16.015625 L -8.03125 -13.03125 L -5.75 -16.71875 L -3.390625 -15.265625 L -5.671875 -11.578125 L 3.609375 -5.84375 L 2 -3.234375 Z M -7.28125 -8.96875 "/></g></g></g><g fill="#000000" fill-opacity="1"><g transform="translate(61.728655, 79.42528)"><g><path d="M 4.015625 -8.453125 C 4.753906 -9.328125 5.164062 -10.425781 5.25 -11.75 L 7.90625 -11.390625 C 7.800781 -10.515625 7.582031 -9.664062 7.25 -8.84375 C 6.925781 -8.03125 6.515625 -7.320312 6.015625 -6.71875 C 5.035156 -5.539062 3.941406 -4.71875 2.734375 -4.25 C 1.535156 -3.78125 0.320312 -3.660156 -0.90625 -3.890625 C -2.144531 -4.117188 -3.296875 -4.679688 -4.359375 -5.578125 C -5.390625 -6.429688 -6.117188 -7.472656 -6.546875 -8.703125 C -6.972656 -9.929688 -7.0625 -11.195312 -6.8125 -12.5 C -6.5625 -13.800781 -5.992188 -14.988281 -5.109375 -16.0625 C -3.960938 -17.425781 -2.609375 -18.234375 -1.046875 -18.484375 C 0.515625 -18.742188 2.160156 -18.441406 3.890625 -17.578125 L -0.125 -6.84375 C 0.644531 -6.695312 1.390625 -6.765625 2.109375 -7.046875 C 2.835938 -7.328125 3.472656 -7.796875 4.015625 -8.453125 Z M -3.375 -14.3125 C -4.175781 -13.351562 -4.5 -12.28125 -4.34375 -11.09375 C -4.195312 -9.90625 -3.597656 -8.875 -2.546875 -8 C -2.296875 -7.789062 -2.097656 -7.640625 -1.953125 -7.546875 L 0.859375 -15.53125 C 0.0976562 -15.75 -0.648438 -15.773438 -1.390625 -15.609375 C -2.140625 -15.441406 -2.800781 -15.007812 -3.375 -14.3125 Z M -3.375 -14.3125 "/></g></g></g><g fill="#000000" fill-opacity="1"><g transform="translate(72.236823, 67.138768)"><g><path d="M -5.171875 -13.859375 L 4.171875 -3.921875 L 1.953125 -1.828125 L -7.390625 -11.765625 Z M -10.921875 -15.1875 C -11.253906 -15.539062 -11.398438 -15.960938 -11.359375 -16.453125 C -11.316406 -16.941406 -11.113281 -17.359375 -10.75 -17.703125 C -10.40625 -18.023438 -9.988281 -18.191406 -9.5 -18.203125 C -9.007812 -18.210938 -8.597656 -18.039062 -8.265625 -17.6875 C -7.929688 -17.34375 -7.785156 -16.925781 -7.828125 -16.4375 C -7.867188 -15.945312 -8.0625 -15.539062 -8.40625 -15.21875 C -8.769531 -14.875 -9.195312 -14.695312 -9.6875 -14.6875 C -10.175781 -14.675781 -10.585938 -14.84375 -10.921875 -15.1875 Z M -10.921875 -15.1875 "/></g></g></g><g fill="#000000" fill-opacity="1"><g transform="translate(77.726123, 61.812469)"><g><path d="M -6.390625 -19.875 L -2.703125 -15.09375 L 0.25 -17.375 L 1.734375 -15.453125 L -1.21875 -13.171875 L 5.609375 -4.328125 L 3.15625 -2.4375 L -3.671875 -11.28125 L -5.65625 -9.75 L -7.140625 -11.671875 L -5.15625 -13.203125 L -8.84375 -17.984375 Z M -6.390625 -19.875 "/></g></g></g><g fill="#000000" fill-opacity="1"><g transform="translate(86.074583, 54.994011)"><g><path d="M -2.125 -6.78125 C -2.789062 -7.945312 -3.113281 -9.171875 -3.09375 -10.453125 C -3.082031 -11.742188 -2.726562 -12.945312 -2.03125 -14.0625 C -1.34375 -15.1875 -0.367188 -16.109375 0.890625 -16.828125 C 2.148438 -17.535156 3.425781 -17.890625 4.71875 -17.890625 C 6.019531 -17.898438 7.210938 -17.582031 8.296875 -16.9375 C 9.390625 -16.289062 10.273438 -15.375 10.953125 -14.1875 C 11.617188 -13 11.953125 -11.765625 11.953125 -10.484375 C 11.953125 -9.210938 11.609375 -8.019531 10.921875 -6.90625 C 10.242188 -5.789062 9.265625 -4.875 7.984375 -4.15625 C 6.742188 -3.445312 5.476562 -3.070312 4.1875 -3.03125 C 2.894531 -3 1.695312 -3.300781 0.59375 -3.9375 C -0.507812 -4.570312 -1.414062 -5.519531 -2.125 -6.78125 Z M 0.578125 -8.265625 C 0.992188 -7.523438 1.546875 -6.929688 2.234375 -6.484375 C 2.929688 -6.046875 3.675781 -5.8125 4.46875 -5.78125 C 5.269531 -5.75 6.019531 -5.9375 6.71875 -6.34375 C 7.832031 -6.96875 8.523438 -7.875 8.796875 -9.0625 C 9.078125 -10.257812 8.890625 -11.441406 8.234375 -12.609375 C 7.566406 -13.785156 6.644531 -14.5625 5.46875 -14.9375 C 4.300781 -15.320312 3.160156 -15.203125 2.046875 -14.578125 C 1.328125 -14.160156 0.785156 -13.601562 0.421875 -12.90625 C 0.0546875 -12.207031 -0.113281 -11.445312 -0.09375 -10.625 C -0.0703125 -9.800781 0.148438 -9.015625 0.578125 -8.265625 Z M 0.578125 -8.265625 "/></g></g></g><g fill="#000000" fill-opacity="1"><g transform="translate(100.860953, 46.832179)"><g/></g></g><g fill="#000000" fill-opacity="1"><g transform="translate(109.586528, 43.138011)"><g><path d="M 12.953125 -4.75 C 12.484375 -4.113281 11.875 -3.546875 11.125 -3.046875 C 10.382812 -2.554688 9.59375 -2.203125 8.75 -1.984375 C 7.320312 -1.597656 5.984375 -1.546875 4.734375 -1.828125 C 3.492188 -2.117188 2.429688 -2.707031 1.546875 -3.59375 C 0.671875 -4.488281 0.0507812 -5.625 -0.3125 -7 C -0.675781 -8.363281 -0.675781 -9.648438 -0.3125 -10.859375 C 0.0390625 -12.078125 0.671875 -13.113281 1.578125 -13.96875 C 2.492188 -14.820312 3.570312 -15.414062 4.8125 -15.75 C 6.820312 -16.28125 8.632812 -16.171875 10.25 -15.421875 L 9.265625 -13.078125 C 8.742188 -13.285156 8.175781 -13.425781 7.5625 -13.5 C 6.957031 -13.582031 6.335938 -13.539062 5.703125 -13.375 C 4.921875 -13.164062 4.253906 -12.773438 3.703125 -12.203125 C 3.160156 -11.640625 2.789062 -10.96875 2.59375 -10.1875 C 2.40625 -9.414062 2.421875 -8.613281 2.640625 -7.78125 C 2.859375 -6.945312 3.253906 -6.242188 3.828125 -5.671875 C 4.410156 -5.097656 5.09375 -4.695312 5.875 -4.46875 C 6.65625 -4.25 7.484375 -4.253906 8.359375 -4.484375 C 9.441406 -4.765625 10.300781 -5.335938 10.9375 -6.203125 Z M 12.953125 -4.75 "/></g></g></g><g fill="#000000" fill-opacity="1"><g transform="translate(122.895644, 39.40167)"><g><path d="M 0.78125 -7.078125 C 0.644531 -8.410156 0.84375 -9.660156 1.375 -10.828125 C 1.90625 -11.992188 2.710938 -12.945312 3.796875 -13.6875 C 4.878906 -14.4375 6.140625 -14.882812 7.578125 -15.03125 C 9.015625 -15.175781 10.328125 -14.988281 11.515625 -14.46875 C 12.710938 -13.957031 13.679688 -13.1875 14.421875 -12.15625 C 15.160156 -11.132812 15.597656 -9.945312 15.734375 -8.59375 C 15.867188 -7.226562 15.675781 -5.957031 15.15625 -4.78125 C 14.644531 -3.613281 13.851562 -2.65625 12.78125 -1.90625 C 11.707031 -1.164062 10.441406 -0.722656 8.984375 -0.578125 C 7.566406 -0.429688 6.253906 -0.601562 5.046875 -1.09375 C 3.847656 -1.582031 2.875 -2.335938 2.125 -3.359375 C 1.375 -4.390625 0.925781 -5.628906 0.78125 -7.078125 Z M 3.859375 -7.359375 C 3.953125 -6.503906 4.222656 -5.734375 4.671875 -5.046875 C 5.128906 -4.359375 5.710938 -3.835938 6.421875 -3.484375 C 7.128906 -3.140625 7.890625 -3.007812 8.703125 -3.09375 C 9.960938 -3.21875 10.960938 -3.769531 11.703125 -4.75 C 12.441406 -5.726562 12.742188 -6.890625 12.609375 -8.234375 C 12.472656 -9.566406 11.941406 -10.644531 11.015625 -11.46875 C 10.097656 -12.289062 9.007812 -12.640625 7.75 -12.515625 C 6.914062 -12.429688 6.191406 -12.140625 5.578125 -11.640625 C 4.960938 -11.148438 4.5 -10.523438 4.1875 -9.765625 C 3.882812 -9.003906 3.773438 -8.203125 3.859375 -7.359375 Z M 3.859375 -7.359375 "/></g></g></g><g fill="#000000" fill-opacity="1"><g transform="translate(139.143379, 37.084342)"><g><path d="M 21.671875 -11.8125 C 22.972656 -11.65625 23.96875 -11.160156 24.65625 -10.328125 C 25.34375 -9.503906 25.640625 -8.476562 25.546875 -7.25 L 24.390625 2.796875 L 21.34375 2.453125 L 22.375 -6.484375 C 22.488281 -8.085938 21.863281 -9.007812 20.5 -9.25 C 19.707031 -9.332031 18.972656 -9.175781 18.296875 -8.78125 C 17.628906 -8.382812 17.078125 -7.828125 16.640625 -7.109375 C 16.203125 -6.390625 15.921875 -5.585938 15.796875 -4.703125 L 15.0625 1.734375 L 11.984375 1.375 L 13.015625 -7.5625 C 13.128906 -9.164062 12.476562 -10.085938 11.0625 -10.328125 C 10.300781 -10.421875 9.582031 -10.265625 8.90625 -9.859375 C 8.226562 -9.460938 7.671875 -8.898438 7.234375 -8.171875 C 6.804688 -7.441406 6.539062 -6.632812 6.4375 -5.75 L 5.703125 0.65625 L 2.65625 0.3125 L 4.21875 -13.234375 L 6.96875 -12.921875 L 6.90625 -10.359375 C 7.53125 -11.285156 8.328125 -11.96875 9.296875 -12.40625 C 10.265625 -12.84375 11.328125 -12.992188 12.484375 -12.859375 C 13.585938 -12.734375 14.476562 -12.375 15.15625 -11.78125 C 15.84375 -11.1875 16.242188 -10.421875 16.359375 -9.484375 C 17.023438 -10.328125 17.820312 -10.953125 18.75 -11.359375 C 19.6875 -11.773438 20.660156 -11.925781 21.671875 -11.8125 Z M 21.671875 -11.8125 "/></g></g></g><g fill="#000000" fill-opacity="1"><g transform="translate(164.649919, 40.647063)"><g/></g></g><g fill="#000000" fill-opacity="1"><g transform="translate(173.698523, 42.974535)"><g><path d="M 20.875 -5.3125 L 15.109375 7.046875 L 12.34375 5.75 L 13.28125 3.71875 C 12.582031 4.09375 11.695312 4.328125 10.625 4.421875 C 9.550781 4.515625 8.492188 4.316406 7.453125 3.828125 C 6.273438 3.285156 5.328125 2.539062 4.609375 1.59375 C 3.898438 0.644531 3.5 -0.441406 3.40625 -1.671875 C 3.320312 -2.910156 3.597656 -4.207031 4.234375 -5.5625 C 4.859375 -6.914062 5.6875 -7.960938 6.71875 -8.703125 C 7.757812 -9.441406 8.890625 -9.859375 10.109375 -9.953125 C 11.335938 -10.054688 12.535156 -9.832031 13.703125 -9.28125 C 14.765625 -8.789062 15.570312 -8.132812 16.125 -7.3125 C 16.6875 -6.5 17.039062 -5.609375 17.1875 -4.640625 L 18.3125 -6.515625 Z M 9.265625 1.875 C 10.285156 2.351562 11.289062 2.476562 12.28125 2.25 C 13.269531 2.019531 14.09375 1.460938 14.75 0.578125 L 15.890625 -1.875 C 16.054688 -2.863281 15.882812 -3.804688 15.375 -4.703125 C 14.875 -5.609375 14.140625 -6.285156 13.171875 -6.734375 C 12.429688 -7.078125 11.660156 -7.210938 10.859375 -7.140625 C 10.066406 -7.078125 9.335938 -6.804688 8.671875 -6.328125 C 8.003906 -5.859375 7.484375 -5.210938 7.109375 -4.390625 C 6.734375 -3.597656 6.582031 -2.785156 6.65625 -1.953125 C 6.726562 -1.117188 6.988281 -0.359375 7.4375 0.328125 C 7.894531 1.015625 8.503906 1.53125 9.265625 1.875 Z M 9.265625 1.875 "/></g></g></g><g fill="#000000" fill-opacity="1"><g transform="translate(190.035086, 49.901555)"><g><path d="M 24.640625 1.09375 C 25.679688 1.90625 26.28125 2.84375 26.4375 3.90625 C 26.601562 4.96875 26.328125 6.003906 25.609375 7.015625 L 19.421875 15.015625 L 17 13.140625 L 22.5 6.015625 C 23.425781 4.703125 23.367188 3.59375 22.328125 2.6875 C 21.703125 2.195312 21 1.945312 20.21875 1.9375 C 19.4375 1.9375 18.671875 2.128906 17.921875 2.515625 C 17.171875 2.898438 16.515625 3.441406 15.953125 4.140625 L 11.984375 9.265625 L 9.546875 7.375 L 15.046875 0.25 C 15.972656 -1.0625 15.894531 -2.1875 14.8125 -3.125 C 14.207031 -3.59375 13.507812 -3.832031 12.71875 -3.84375 C 11.9375 -3.851562 11.171875 -3.65625 10.421875 -3.25 C 9.671875 -2.851562 9.023438 -2.304688 8.484375 -1.609375 L 4.53125 3.5 L 2.109375 1.640625 L 10.453125 -9.15625 L 12.640625 -7.46875 L 11.265625 -5.296875 C 12.285156 -5.753906 13.320312 -5.921875 14.375 -5.796875 C 15.425781 -5.671875 16.414062 -5.253906 17.34375 -4.546875 C 18.21875 -3.867188 18.789062 -3.097656 19.0625 -2.234375 C 19.332031 -1.378906 19.273438 -0.523438 18.890625 0.328125 C 19.898438 -0.0351562 20.910156 -0.148438 21.921875 -0.015625 C 22.941406 0.109375 23.847656 0.476562 24.640625 1.09375 Z M 24.640625 1.09375 "/></g></g></g><g fill="#000000" fill-opacity="1"><g transform="translate(210.029099, 65.759638)"><g><path d="M 6.28125 -3.328125 C 7.3125 -4.191406 8.457031 -4.726562 9.71875 -4.9375 C 10.988281 -5.15625 12.238281 -5.023438 13.46875 -4.546875 C 14.695312 -4.078125 15.773438 -3.285156 16.703125 -2.171875 C 17.640625 -1.066406 18.222656 0.117188 18.453125 1.390625 C 18.691406 2.671875 18.59375 3.90625 18.15625 5.09375 C 17.726562 6.28125 16.988281 7.3125 15.9375 8.1875 C 14.894531 9.0625 13.742188 9.613281 12.484375 9.84375 C 11.222656 10.070312 9.984375 9.953125 8.765625 9.484375 C 7.546875 9.023438 6.46875 8.234375 5.53125 7.109375 C 4.613281 6.015625 4.019531 4.832031 3.75 3.5625 C 3.476562 2.300781 3.554688 1.070312 3.984375 -0.125 C 4.410156 -1.332031 5.175781 -2.398438 6.28125 -3.328125 Z M 8.25 -0.921875 C 7.59375 -0.378906 7.109375 0.269531 6.796875 1.03125 C 6.484375 1.789062 6.382812 2.5625 6.5 3.34375 C 6.613281 4.125 6.929688 4.828125 7.453125 5.453125 C 8.265625 6.429688 9.285156 6.945312 10.515625 7 C 11.742188 7.0625 12.875 6.664062 13.90625 5.8125 C 14.925781 4.945312 15.519531 3.898438 15.6875 2.671875 C 15.851562 1.453125 15.53125 0.351562 14.71875 -0.625 C 14.175781 -1.257812 13.523438 -1.691406 12.765625 -1.921875 C 12.015625 -2.148438 11.234375 -2.175781 10.421875 -2 C 9.617188 -1.832031 8.894531 -1.472656 8.25 -0.921875 Z M 8.25 -0.921875 "/></g></g></g><g fill="#000000" fill-opacity="1"><g transform="translate(220.740031, 78.731381)"><g><path d="M 11.8125 -0.671875 C 12.632812 -0.765625 13.457031 -0.679688 14.28125 -0.421875 C 15.113281 -0.171875 15.847656 0.175781 16.484375 0.625 C 17.128906 1.082031 17.609375 1.539062 17.921875 2 L 15.234375 3.5 C 14.753906 2.632812 14.117188 1.972656 13.328125 1.515625 C 12.535156 1.066406 11.6875 0.851562 10.78125 0.875 C 9.882812 0.90625 9.066406 1.148438 8.328125 1.609375 L 3.015625 4.875 L 1.40625 2.28125 L 13.015625 -4.875 L 14.453125 -2.546875 Z M 11.8125 -0.671875 "/></g></g></g></g></g></svg>